# xmcd
#
# Track frame offsets:
# 150
# 1889
# 23714
# 52275
# 69292
# 88599
# 108725
# 124676
# 144814
# 169599
# 183221
# 206431
# 227588
# 246061
# 268533
# 293318
#
# Disc length: 4003 seconds
#
# Revision: 0
# Processed by: cddbd v1.4PL0 Copyright (c) Steve Scherf et al.
# Submitted via: Audion 3.0.2 (http://www.panic.com/audion/)
#
DISCID=cb0fa110
DTITLE=outlawz - neva surrenda
DYEAR=1900
DGENRE=
TTITLE0=8
TTITLE1=9
TTITLE2=10
TTITLE3=11
TTITLE4=12
TTITLE5=13
TTITLE6=14
TTITLE7=15
TTITLE8=16
TTITLE9=1
TTITLE10=2
TTITLE11=3
TTITLE12=4
TTITLE13=5
TTITLE14=6
TTITLE15=7
EXTD=
EXTT0=
EXTT1=
EXTT2=
EXTT3=
EXTT4=
EXTT5=
EXTT6=
EXTT7=
EXTT8=
EXTT9=
EXTT10=
EXTT11=
EXTT12=
EXTT13=
EXTT14=
EXTT15=
PLAYORDER=
